<?xml version="1.0" standalone="no"?>
<!DOCTYPE svg PUBLIC "-//W3C//DTD SVG 20010904//EN"
 "http://www.w3.org/TR/2001/REC-SVG-20010904/DTD/svg10.dtd">
<svg version="1.0" xmlns="http://www.w3.org/2000/svg"
 width="2943.000000pt" height="2656.000000pt" viewBox="0 0 2943.000000 2656.000000"
 preserveAspectRatio="xMidYMid meet">

<g transform="translate(0.000000,2656.000000) scale(0.100000,-0.100000)"
fill="#4f46e5" stroke="none">
<path d="M14955 26154 c-763 -37 -1343 -106 -2012 -240 -2936 -585 -5628
-2200 -7479 -4484 -894 -1103 -1478 -2156 -1830 -3295 -193 -627 -306 -1250
-345 -1913 -15 -246 -6 -836 15 -1072 114 -1246 490 -2389 1149 -3490 987
-1649 2612 -3048 4506 -3880 1029 -451 2050 -708 3201 -807 259 -22 1029 -25
1275 -5 546 45 995 116 1460 233 145 37 395 108 413 118 8 4 -69 11 -170 14
-100 4 -250 13 -333 22 -970 102 -1831 405 -2610 920 -375 248 -630 458 -985
814 -385 386 -619 659 -902 1054 -1245 1733 -1709 3809 -1347 6017 472 2873
2339 5675 4929 7395 1389 922 2881 1478 4410 1644 374 41 487 46 960 46 453
-1 674 -11 930 -45 167 -21 146 -10 -295 154 -1171 438 -2331 687 -3636 782
-199 14 -1117 27 -1304 18z"/>
<path d="M19165 24289 c-738 -42 -1486 -170 -2185 -374 -1236 -361 -2452
-1032 -3520 -1944 -473 -404 -973 -915 -1370 -1401 -1168 -1430 -1928 -3095
-2165 -4743 -13 -94 -27 -203 -30 -242 l-6 -70 69 155 c234 525 512 970 895
1430 155 187 580 612 767 767 775 645 1605 1052 2544 1248 1033 216 2156 160
3131 -155 506 -164 941 -375 1395 -675 341 -225 559 -404 988 -811 167 -157
290 -260 432 -360 578 -407 1268 -624 1985 -624 971 0 1874 394 2536 1107 500
538 798 1185 899 1948 21 158 24 555 5 735 -36 356 -111 656 -250 1010 -307
779 -857 1449 -1590 1940 -293 196 -709 414 -1040 546 -742 294 -1561 464
-2465 514 -211 11 -816 11 -1025 -1z"/>
<path d="M2563 12970 c39 -1781 466 -3555 1258 -5224 1127 -2378 2935 -4327
5219 -5628 1656 -943 3483 -1512 5355 -1667 369 -31 510 -36 1040 -36 549 0
680 5 1090 40 1954 169 3860 791 5569 1817 570 343 1111 728 1631 1162 297
248 716 637 904 840 507 548 807 1201 903 1966 17 140 17 630 0 770 -107 855
-466 1564 -1088 2150 -489 460 -1135 774 -1809 879 -1165 181 -2357 -242
-3098 -1101 -750 -868 -1629 -1554 -2642 -2060 -1824 -913 -3989 -1165 -6154
-717 -1692 350 -3310 1116 -4681 2214 -1267 1016 -2287 2285 -3009 3745 -161
324 -348 756 -446 1026 -20 54 -38 100 -42 103 -3 3 -3 -122 0 -279z"/>
</g>
</svg>
