<?xml version="1.0" standalone="no"?>
<!DOCTYPE svg PUBLIC "-//W3C//DTD SVG 20010904//EN"
 "http://www.w3.org/TR/2001/REC-SVG-20010904/DTD/svg10.dtd">
<svg version="1.0" xmlns="http://www.w3.org/2000/svg"
 width="5000.000000pt" height="4512.000000pt" viewBox="0 0 5000.000000 4512.000000"
 preserveAspectRatio="xMidYMid meet">

<g transform="translate(0.000000,4512.000000) scale(0.100000,-0.100000)"
fill="#1e3a8a" stroke="none">
<path d="M25905 34994 c-763 -37 -1343 -106 -2012 -240 -2936 -585 -5628
-2200 -7479 -4484 -894 -1103 -1478 -2156 -1830 -3295 -193 -627 -306 -1250
-345 -1913 -15 -246 -6 -836 15 -1072 114 -1246 490 -2389 1149 -3490 987
-1649 2612 -3048 4506 -3880 1029 -451 2047 -708 3201 -807 255 -22 1051 -25
1280 -5 573 50 993 117 1455 233 145 37 395 108 413 118 8 4 -69 11 -170 14
-100 4 -250 13 -333 22 -970 102 -1831 405 -2610 920 -375 248 -630 458 -985
814 -385 386 -619 659 -902 1054 -1245 1733 -1709 3809 -1347 6017 296 1803
1148 3607 2428 5144 445 535 988 1078 1521 1522 749 624 1605 1166 2445 1549
970 443 1948 716 2945 824 374 41 487 46 960 46 453 -1 674 -11 930 -45 167
-21 146 -10 -295 155 -1167 436 -2332 686 -3636 781 -199 14 -1117 27 -1304
18z"/>
<path d="M30115 33129 c-738 -42 -1486 -170 -2185 -374 -1236 -361 -2452
-1032 -3520 -1944 -473 -404 -973 -915 -1370 -1401 -1167 -1429 -1928 -3095
-2165 -4743 -13 -94 -27 -203 -30 -242 l-6 -70 69 155 c234 525 512 970 895
1430 155 187 580 612 767 767 775 645 1605 1052 2544 1248 1033 216 2156 160
3131 -155 506 -164 941 -375 1395 -675 341 -225 559 -404 988 -811 167 -157
290 -260 432 -360 578 -407 1268 -624 1985 -624 971 0 1874 394 2536 1107 503
542 806 1201 901 1963 17 140 17 652 0 780 -48 350 -120 627 -247 950 -307
779 -857 1449 -1590 1940 -293 196 -709 414 -1040 546 -742 294 -1561 464
-2465 514 -211 11 -816 11 -1025 -1z"/>
<path d="M13515 21810 c39 -2222 723 -4505 1941 -6483 1505 -2442 3802 -4302
6549 -5302 1182 -430 2298 -662 3640 -757 243 -17 1238 -17 1480 0 1075 76
1927 226 2870 503 1594 469 3171 1288 4435 2303 549 441 1075 933 1315 1231
405 504 653 1100 737 1775 17 140 17 630 0 770 -112 895 -517 1661 -1182 2234
-168 146 -365 284 -565 398 -336 191 -753 335 -1150 397 -1165 181 -2357 -242
-3098 -1101 -750 -868 -1629 -1554 -2642 -2060 -1824 -912 -3990 -1165 -6154
-717 -1692 350 -3310 1116 -4681 2214 -1250 1002 -2268 2262 -2984 3693 -159
318 -327 699 -440 997 -31 83 -61 159 -67 170 -6 13 -8 -76 -4 -265z"/>
</g>
</svg>
